<svg width="58" height="45" viewBox="0 0 58 45" fill="none" xmlns="http://www.w3.org/2000/svg">
<path d="M5.82759 1H1V32.6057C1 33.2241 1.13793 35.2166 1.48276 36.7969C2.36552 39.7651 4.97701 41.6981 6.17241 42.2935C12.3103 45.1793 18.4483 43.6677 19.3448 43.0493H26.6552L26.7241 25.3913L31.069 43.0493H42.3793L35.6207 19.9634L39.069 9.38238H45.8966V17.3525H39.2069V25.4601H45.9655V43.0493H57V1H31.4828L26.7931 16.9403V1H26.6552H23.2069C21.5517 2.92382 21.5374 3.5422 21.2759 4.02315C20.3793 5.67215 20.8621 9.38238 21 10.2756C20.9448 10.9901 22.1724 10.5733 22.7931 10.2756C22.954 10.184 23.2897 10.042 23.3448 10.2069C23.4828 10.3443 23.3448 10.9627 23.069 11.4436C22.6276 12.9277 21.6897 14.3523 21.2759 14.879C20.5586 15.5386 20.1494 17.0777 20.0345 17.7648C19.7586 18.8641 20.0345 20.3757 20.3103 20.6505C20.5172 21.1315 20.5172 22.5056 20.4483 23.124C20.3931 23.6187 20.1494 23.9714 20.0345 24.0859C19.7816 24.3149 19.2069 24.8829 18.931 25.3226C18.269 26.2021 18.6552 27.5213 18.931 28.071C19.3448 28.3458 18.5862 29.239 18.3793 29.3764C18.1034 29.5138 17.9655 30.8193 17.9655 30.9567C17.9655 31.0941 17.9655 31.2315 17.8276 31.3689C17.3448 31.9186 16.6552 33.0867 16.6552 33.2241C16.6552 33.334 16.6092 33.3615 16.5862 33.3615C15.9241 33.0867 15.3974 35.354 14.7931 36.4533C13.2069 39.3391 12.7931 36.9343 12.3103 36.4533C12.0345 35.9266 11.4828 34.4608 11.3448 34.1173C11.2069 33.3615 10.931 32.537 10.6552 32.056C10.4345 31.6713 10.4713 30.6132 10.5172 30.1322C10.7241 29.9261 11.3448 26.6968 10.5172 25.4601C9.91035 24.1409 10.3563 22.895 10.6552 22.4369C10.931 22.0934 10.7931 19.6886 10.5172 19.1389C10.3793 17.6273 10.3103 18.1083 10.2414 17.4899C10.1862 16.5555 10.0345 16.1845 9.96552 16.1158C9.68966 15.9509 9.82759 14.3294 9.82759 14.1919C9.82759 14.0232 9.75862 13.3674 9.27586 13.23C9.13793 13.2987 8.17241 12.4742 8.17241 12.4055C8.17241 12.3506 8.03448 12.291 7.96552 12.2681H6.51724C6.4069 12.2681 5.82759 12.9094 5.55172 13.23C5.34483 13.4362 4.64138 13.5049 4.58621 13.23C4.42069 13.285 4.14943 13.1613 4.03448 13.0926C3.06897 11.9933 2.51724 11.2005 2.24138 10.7565C1.52414 9.60225 1.43678 9.08464 1.48276 8.97013V6.84018C1.48276 6.40045 2.10345 4.64153 2.31034 4.50411C3.02759 2.91008 4.58621 1.61837 5.82759 1Z" fill="#033AB9" stroke="#033AB9"/>
</svg>
