<svg width="151" height="116" viewBox="0 0 151 116" fill="none" xmlns="http://www.w3.org/2000/svg">
<path d="M13.8448 1H1V85.1489C1 86.7953 1.367 92.1004 2.28448 96.3078C4.63325 104.21 11.5817 109.357 14.7623 110.942C31.0936 118.626 47.4249 114.601 49.8103 112.955H69.2611L69.4446 65.941L81.0049 112.955H111.099L93.1158 51.4894L102.291 23.3178H120.457V44.5379H102.658V66.124H120.64V112.955H150V1H82.1059L69.6281 43.4403V1H69.2611H60.0862C55.6823 6.12211 55.644 7.7685 54.9483 9.04903C52.5628 13.4394 53.8473 23.3178 54.2143 25.6959C54.0675 27.5984 57.3337 26.4886 58.9852 25.6959C59.4134 25.452 60.3064 25.0739 60.4532 25.513C60.8202 25.8788 60.4532 27.5252 59.7192 28.8057C58.5448 32.7571 56.0493 36.5499 54.9483 37.9524C53.0399 39.7085 51.9511 43.8062 51.6453 45.6355C50.9113 48.5624 51.6453 52.587 52.3793 53.3187C52.9298 54.5992 52.9298 58.2579 52.7463 59.9043C52.5995 61.2214 51.9511 62.1604 51.6453 62.4653C50.9725 63.0751 49.4433 64.5873 48.7094 65.7581C46.9478 68.0996 47.9754 71.6119 48.7094 73.0754C49.8103 73.8071 47.7919 76.1852 47.2414 76.5511C46.5074 76.917 46.1404 80.3927 46.1404 80.7586C46.1404 81.1244 46.1404 81.4903 45.7734 81.8561C44.4889 83.3196 42.6539 86.4295 42.6539 86.7953C42.6539 87.088 42.5316 87.1612 42.4704 87.1612C40.7089 86.4295 39.3073 92.4662 37.6995 95.3932C33.4791 103.076 32.3781 96.6737 31.0936 95.3932C30.3596 93.9907 28.8916 90.0881 28.5246 89.1735C28.1576 87.1612 27.4236 84.966 26.6897 83.6855C26.1025 82.6611 26.2003 79.8439 26.3227 78.5634C26.8732 78.0146 28.5246 69.4167 26.3227 66.124C24.7079 62.6117 25.8945 59.2945 26.6897 58.0749C27.4236 57.1603 27.0567 50.7576 26.3227 49.2942C25.9557 45.2697 25.7722 46.5502 25.5887 44.9038C25.4419 42.4159 25.0382 41.4281 24.8547 41.2451C24.1207 40.8061 24.4877 36.4889 24.4877 36.123C24.4877 35.6738 24.3042 33.9278 23.0197 33.562C22.6527 33.7449 20.0837 31.5497 20.0837 31.3668C20.0837 31.2204 19.7167 31.0619 19.5333 31.0009H15.6798C15.3862 31.0009 13.8448 32.7083 13.1108 33.562C12.5603 34.1108 10.6887 34.2937 10.5419 33.562C10.1015 33.7083 9.37972 33.3791 9.07389 33.1961C6.50493 30.2692 5.03695 28.1584 4.30296 26.9764C2.39458 23.9031 2.16215 22.5251 2.28448 22.2202V16.5493C2.28448 15.3785 3.93596 10.6954 4.48645 10.3296C6.39483 6.08552 10.5419 2.64639 13.8448 1Z" fill="white" stroke="white"/>
</svg>
