<svg width="408" height="315" viewBox="0 0 408 315" fill="none" xmlns="http://www.w3.org/2000/svg">
<path d="M36 1H1V231C1 235.5 2 250 4.5 261.5C10.9 283.1 29.8333 297.167 38.5 301.5C83 322.5 127.5 311.5 134 307H187L187.5 178.5L219 307H301L252 139L277 62H326.5V120H278V179H327V307H407V1H222L188 117V1H187H162C150 15 149.896 19.5 148 23C141.5 35 145 62 146 68.5C145.6 73.7 154.5 70.6667 159 68.5C160.167 67.8333 162.6 66.8 163 68C164 69 163 73.5 161 77C157.8 87.8 151 98.1667 148 102C142.8 106.8 139.833 118 139 123C137 131 139 142 141 144C142.5 147.5 142.5 157.5 142 162C141.6 165.6 139.833 168.167 139 169C137.167 170.667 133 174.8 131 178C126.2 184.4 129 194 131 198C134 200 128.5 206.5 127 207.5C125 208.5 124 218 124 219C124 220 124 221 123 222C119.5 226 114.5 234.5 114.5 235.5C114.5 236.3 114.167 236.5 114 236.5C109.2 234.5 105.381 251 101 259C89.5 280 86.5 262.5 83 259C81 255.167 77 244.5 76 242C75 236.5 73 230.5 71 227C69.4 224.2 69.6667 216.5 70 213C71.5 211.5 76 188 70 179C65.6 169.4 68.8333 160.333 71 157C73 154.5 72 137 70 133C69 122 68.5 125.5 68 121C67.6 114.2 66.5 111.5 66 111C64 109.8 65 98 65 97C65 95.7722 64.5 91 61 90C60 90.5 53 84.5 53 84C53 83.6 52 83.1667 51.5 83H41C40.2 83 36 87.6667 34 90C32.5 91.5 27.4 92 27 90C25.8 90.4 23.8333 89.5 23 89C16 81 12 75.2308 10 72C4.8 63.6 4.16667 59.8333 4.5 59V43.5C4.5 40.3 9 27.5 10.5 26.5C15.7 14.9 27 5.5 36 1Z" fill="#033AB9" stroke="#033AB9"/>
</svg>
