<svg width="240" height="48" viewBox="0 0 240 48" fill="none" xmlns="http://www.w3.org/2000/svg">
<path d="M67.4648 6.25781H74.3008V6.61914H73.959C73.4447 6.61914 73.0898 6.67448 72.8945 6.78516C72.7057 6.88932 72.569 7.03581 72.4844 7.22461C72.4062 7.41341 72.3672 7.88542 72.3672 8.64062V15.125C72.3672 16.3099 72.4551 17.0944 72.6309 17.4785C72.8132 17.8626 73.1094 18.1816 73.5195 18.4355C73.9297 18.6895 74.4473 18.8164 75.0723 18.8164C75.7884 18.8164 76.3971 18.6569 76.8984 18.3379C77.4062 18.0124 77.7839 17.5664 78.0312 17C78.2852 16.4336 78.4121 15.4473 78.4121 14.041V8.64062C78.4121 8.04818 78.3503 7.625 78.2266 7.37109C78.1029 7.11719 77.9466 6.94141 77.7578 6.84375C77.4648 6.69401 77.0514 6.61914 76.5176 6.61914V6.25781H81.0977V6.61914H80.8242C80.4531 6.61914 80.1439 6.69401 79.8965 6.84375C79.6491 6.99349 79.4701 7.2181 79.3594 7.51758C79.2747 7.72591 79.2324 8.10026 79.2324 8.64062V13.6699C79.2324 15.2259 79.1283 16.349 78.9199 17.0391C78.7181 17.7292 78.2201 18.3639 77.4258 18.9434C76.6315 19.5228 75.5475 19.8125 74.1738 19.8125C73.028 19.8125 72.1426 19.6595 71.5176 19.3535C70.6647 18.9368 70.0625 18.403 69.7109 17.752C69.3594 17.1009 69.1836 16.2253 69.1836 15.125V8.64062C69.1836 7.87891 69.1413 7.4069 69.0566 7.22461C68.972 7.03581 68.8255 6.88607 68.6172 6.77539C68.4089 6.66471 68.0247 6.61263 67.4648 6.61914V6.25781ZM87.6582 18.5723V21.9707C87.6582 22.4395 87.694 22.7585 87.7656 22.9277C87.8438 23.097 87.9609 23.2207 88.1172 23.2988C88.2734 23.377 88.5794 23.416 89.0352 23.416V23.7773H83.8301V23.416C84.2337 23.403 84.5332 23.2891 84.7285 23.0742C84.8587 22.9245 84.9238 22.5371 84.9238 21.9121V12.2734C84.9238 11.6289 84.849 11.2188 84.6992 11.043C84.5495 10.8607 84.2598 10.7565 83.8301 10.7305V10.3691H87.6582V11.5703C87.9772 11.1016 88.3027 10.763 88.6348 10.5547C89.11 10.2487 89.6276 10.0957 90.1875 10.0957C90.8581 10.0957 91.4668 10.3073 92.0137 10.7305C92.5671 11.1536 92.987 11.7396 93.2734 12.4883C93.5599 13.2305 93.7031 14.0312 93.7031 14.8906C93.7031 15.8151 93.5534 16.6615 93.2539 17.4297C92.9609 18.1914 92.5312 18.7741 91.9648 19.1777C91.4049 19.5749 90.7799 19.7734 90.0898 19.7734C89.5885 19.7734 89.1198 19.6628 88.6836 19.4414C88.3581 19.2721 88.0163 18.9824 87.6582 18.5723ZM87.6582 17.5859C88.2181 18.3802 88.8171 18.7773 89.4551 18.7773C89.8066 18.7773 90.0964 18.5918 90.3242 18.2207C90.6628 17.6738 90.832 16.6322 90.832 15.0957C90.832 13.5202 90.6465 12.4427 90.2754 11.8633C90.028 11.4792 89.696 11.2871 89.2793 11.2871C88.6217 11.2871 88.0814 11.7624 87.6582 12.7129V17.5859ZM101.045 10.3691V12.4395C101.65 11.4954 102.181 10.8704 102.637 10.5645C103.092 10.252 103.532 10.0957 103.955 10.0957C104.32 10.0957 104.609 10.2096 104.824 10.4375C105.046 10.6589 105.156 10.9746 105.156 11.3848C105.156 11.821 105.049 12.1595 104.834 12.4004C104.626 12.6413 104.372 12.7617 104.072 12.7617C103.727 12.7617 103.428 12.651 103.174 12.4297C102.92 12.2083 102.77 12.0846 102.725 12.0586C102.66 12.0195 102.585 12 102.5 12C102.311 12 102.132 12.0716 101.963 12.2148C101.696 12.4362 101.494 12.752 101.357 13.1621C101.149 13.7936 101.045 14.4902 101.045 15.252V17.3516L101.055 17.8984C101.055 18.2695 101.077 18.5072 101.123 18.6113C101.201 18.7871 101.315 18.9173 101.465 19.002C101.621 19.0801 101.882 19.1289 102.246 19.1484V19.5H97.3145V19.1484C97.7116 19.1159 97.9785 19.0085 98.1152 18.8262C98.2585 18.6374 98.3301 18.1458 98.3301 17.3516V12.3027C98.3301 11.7819 98.304 11.4499 98.252 11.3066C98.1868 11.1243 98.0924 10.9909 97.9688 10.9062C97.8451 10.8216 97.627 10.763 97.3145 10.7305V10.3691H101.045ZM110.34 5.94531C110.763 5.94531 111.121 6.09505 111.414 6.39453C111.707 6.6875 111.854 7.04232 111.854 7.45898C111.854 7.87565 111.704 8.23047 111.404 8.52344C111.111 8.81641 110.757 8.96289 110.34 8.96289C109.923 8.96289 109.568 8.81641 109.275 8.52344C108.982 8.23047 108.836 7.87565 108.836 7.45898C108.836 7.04232 108.982 6.6875 109.275 6.39453C109.568 6.09505 109.923 5.94531 110.34 5.94531ZM111.707 10.3691V17.6055C111.707 18.25 111.782 18.6634 111.932 18.8457C112.081 19.0215 112.374 19.1224 112.811 19.1484V19.5H107.879V19.1484C108.283 19.1354 108.582 19.0182 108.777 18.7969C108.908 18.6471 108.973 18.25 108.973 17.6055V12.2734C108.973 11.6289 108.898 11.2188 108.748 11.043C108.598 10.8607 108.309 10.7565 107.879 10.7305V10.3691H111.707ZM121.568 10.4766H124.645V11.5508H122.896C123.215 11.8698 123.437 12.1595 123.561 12.4199C123.717 12.7715 123.795 13.1393 123.795 13.5234C123.795 14.1745 123.613 14.7409 123.248 15.2227C122.89 15.6979 122.398 16.0723 121.773 16.3457C121.155 16.6126 120.605 16.7461 120.123 16.7461C120.084 16.7461 119.693 16.7298 118.951 16.6973C118.658 16.6973 118.411 16.7949 118.209 16.9902C118.014 17.179 117.916 17.4069 117.916 17.6738C117.916 17.9082 118.004 18.1003 118.18 18.25C118.362 18.3997 118.655 18.4746 119.059 18.4746L120.748 18.4551C122.115 18.4551 123.056 18.6048 123.57 18.9043C124.306 19.321 124.674 19.9622 124.674 20.8281C124.674 21.3815 124.505 21.8828 124.166 22.332C123.827 22.7878 123.382 23.123 122.828 23.3379C121.988 23.6569 121.021 23.8164 119.928 23.8164C119.107 23.8164 118.359 23.735 117.682 23.5723C117.005 23.416 116.52 23.1947 116.227 22.9082C115.934 22.6283 115.787 22.332 115.787 22.0195C115.787 21.7201 115.898 21.4499 116.119 21.209C116.347 20.9746 116.767 20.776 117.379 20.6133C116.533 20.1966 116.109 19.6172 116.109 18.875C116.109 18.4258 116.282 17.9896 116.627 17.5664C116.972 17.1432 117.519 16.7754 118.268 16.4629C117.395 16.1439 116.764 15.724 116.373 15.2031C115.982 14.6823 115.787 14.0801 115.787 13.3965C115.787 12.5046 116.152 11.7331 116.881 11.082C117.61 10.4245 118.548 10.0957 119.693 10.0957C120.299 10.0957 120.924 10.2227 121.568 10.4766ZM119.879 10.7012C119.501 10.7012 119.182 10.8932 118.922 11.2773C118.661 11.6549 118.531 12.4427 118.531 13.6406C118.531 14.6107 118.658 15.278 118.912 15.6426C119.173 16.0007 119.479 16.1797 119.83 16.1797C120.221 16.1797 120.546 16.0007 120.807 15.6426C121.067 15.2845 121.197 14.5879 121.197 13.5527C121.197 12.3874 121.051 11.5931 120.758 11.1699C120.549 10.8574 120.257 10.7012 119.879 10.7012ZM119.303 20.8477C118.639 20.8477 118.199 20.903 117.984 21.0137C117.613 21.2155 117.428 21.4889 117.428 21.834C117.428 22.166 117.62 22.4655 118.004 22.7324C118.388 23.0059 119.111 23.1426 120.172 23.1426C121.077 23.1426 121.786 23.0221 122.301 22.7812C122.822 22.5404 123.082 22.2018 123.082 21.7656C123.082 21.6029 123.033 21.4661 122.936 21.3555C122.76 21.1602 122.493 21.0267 122.135 20.9551C121.783 20.8835 120.839 20.8477 119.303 20.8477ZM131.439 6.25781V11.541C131.941 11.0137 132.4 10.6426 132.816 10.4277C133.233 10.2064 133.666 10.0957 134.115 10.0957C134.688 10.0957 135.176 10.2585 135.58 10.584C135.99 10.9095 136.26 11.2936 136.391 11.7363C136.527 12.1725 136.596 12.9115 136.596 13.9531V17.5176C136.596 18.2142 136.661 18.6504 136.791 18.8262C136.921 18.9954 137.185 19.1029 137.582 19.1484V19.5H132.953V19.1484C133.279 19.1029 133.523 18.9727 133.686 18.7578C133.803 18.5885 133.861 18.1751 133.861 17.5176V13.4453C133.861 12.6901 133.832 12.2181 133.773 12.0293C133.715 11.834 133.614 11.6842 133.471 11.5801C133.334 11.4694 133.178 11.4141 133.002 11.4141C132.742 11.4141 132.488 11.5052 132.24 11.6875C131.993 11.8633 131.726 12.1758 131.439 12.625V17.5176C131.439 18.1686 131.488 18.5755 131.586 18.7383C131.71 18.9596 131.964 19.0964 132.348 19.1484V19.5H127.719V19.1484C128.103 19.1094 128.376 18.9857 128.539 18.7773C128.65 18.6341 128.705 18.2142 128.705 17.5176V8.24023C128.705 7.55013 128.64 7.12044 128.51 6.95117C128.386 6.7819 128.122 6.67122 127.719 6.61914V6.25781H131.439ZM144.465 7.0293V10.3691H146.633V11.3359H144.465V16.9707C144.465 17.498 144.488 17.8398 144.533 17.9961C144.585 18.1458 144.673 18.2695 144.797 18.3672C144.921 18.4583 145.035 18.5039 145.139 18.5039C145.562 18.5039 145.962 18.1816 146.34 17.5371L146.633 17.752C146.105 19.002 145.249 19.627 144.064 19.627C143.485 19.627 142.993 19.4674 142.59 19.1484C142.193 18.8229 141.939 18.4616 141.828 18.0645C141.763 17.8431 141.73 17.2441 141.73 16.2676V11.3359H140.539V10.9941C141.359 10.4147 142.056 9.80599 142.629 9.16797C143.208 8.52995 143.713 7.81706 144.143 7.0293H144.465ZM75.3262 34.3262L79.9844 40.1562C80.6419 40.9766 81.2083 41.5332 81.6836 41.8262C82.0286 42.0345 82.3932 42.1387 82.7773 42.1387V42.5H75.8828V42.1387C76.319 42.0996 76.599 42.0312 76.7227 41.9336C76.8529 41.8359 76.918 41.7155 76.918 41.5723C76.918 41.2988 76.6185 40.7845 76.0195 40.0293L72.9824 36.2109L72.4941 36.6211V40.2344C72.4941 40.9245 72.5332 41.3542 72.6113 41.5234C72.6895 41.6927 72.8392 41.8392 73.0605 41.9629C73.2819 42.0801 73.6367 42.1387 74.125 42.1387V42.5H67.4453V42.1387H67.8848C68.2689 42.1387 68.5781 42.0703 68.8125 41.9336C68.9818 41.8424 69.112 41.6862 69.2031 41.4648C69.2747 41.3086 69.3105 40.8984 69.3105 40.2344V31.5234C69.3105 30.8464 69.2747 30.4232 69.2031 30.2539C69.1315 30.0846 68.985 29.9382 68.7637 29.8145C68.5488 29.6842 68.2559 29.6191 67.8848 29.6191H67.4453V29.2578H74.0371V29.6191C73.5879 29.6191 73.2461 29.6842 73.0117 29.8145C72.8424 29.9056 72.709 30.0586 72.6113 30.2734C72.5332 30.4362 72.4941 30.8529 72.4941 31.5234V35.6445L77.4062 31.6699C78.0898 31.1165 78.4316 30.6738 78.4316 30.3418C78.4316 30.0944 78.2917 29.8991 78.0117 29.7559C77.8685 29.6842 77.5137 29.6387 76.9473 29.6191V29.2578H82.1133V29.6191C81.651 29.6517 81.2865 29.7363 81.0195 29.873C80.7591 30.0033 80.1536 30.4525 79.2031 31.2207L75.3262 34.3262ZM87.4336 28.9453C87.8568 28.9453 88.2148 29.0951 88.5078 29.3945C88.8008 29.6875 88.9473 30.0423 88.9473 30.459C88.9473 30.8757 88.7975 31.2305 88.498 31.5234C88.2051 31.8164 87.8503 31.9629 87.4336 31.9629C87.0169 31.9629 86.6621 31.8164 86.3691 31.5234C86.0762 31.2305 85.9297 30.8757 85.9297 30.459C85.9297 30.0423 86.0762 29.6875 86.3691 29.3945C86.6621 29.0951 87.0169 28.9453 87.4336 28.9453ZM88.8008 33.3691V40.6055C88.8008 41.25 88.8757 41.6634 89.0254 41.8457C89.1751 42.0215 89.4681 42.1224 89.9043 42.1484V42.5H84.9727V42.1484C85.3763 42.1354 85.6758 42.0182 85.8711 41.7969C86.0013 41.6471 86.0664 41.25 86.0664 40.6055V35.2734C86.0664 34.6289 85.9915 34.2188 85.8418 34.043C85.6921 33.8607 85.4023 33.7565 84.9727 33.7305V33.3691H88.8008ZM101.68 29.2578V39.7656C101.68 40.4753 101.699 40.8952 101.738 41.0254C101.79 41.2402 101.888 41.3997 102.031 41.5039C102.181 41.6081 102.438 41.6732 102.803 41.6992V42.0215L98.9453 42.7734V41.3281C98.4831 41.888 98.0697 42.2689 97.7051 42.4707C97.347 42.6725 96.9401 42.7734 96.4844 42.7734C95.319 42.7734 94.3978 42.2526 93.7207 41.2109C93.1738 40.3646 92.9004 39.3262 92.9004 38.0957C92.9004 37.1126 93.0697 36.2337 93.4082 35.459C93.7467 34.6777 94.209 34.0885 94.7949 33.6914C95.3874 33.2943 96.0221 33.0957 96.6992 33.0957C97.1354 33.0957 97.5228 33.1803 97.8613 33.3496C98.1999 33.5189 98.5612 33.8151 98.9453 34.2383V31.4844C98.9453 30.7878 98.916 30.3678 98.8574 30.2246C98.7793 30.0358 98.6621 29.8958 98.5059 29.8047C98.3496 29.7135 98.0566 29.668 97.627 29.668V29.2578H101.68ZM98.9453 35.4492C98.4635 34.5247 97.8743 34.0625 97.1777 34.0625C96.9368 34.0625 96.7383 34.1276 96.582 34.2578C96.3411 34.4596 96.1426 34.8145 95.9863 35.3223C95.8366 35.8301 95.7617 36.6081 95.7617 37.6562C95.7617 38.8086 95.8464 39.6615 96.0156 40.2148C96.1849 40.7682 96.416 41.1686 96.709 41.416C96.8587 41.5397 97.0638 41.6016 97.3242 41.6016C97.8971 41.6016 98.4375 41.1523 98.9453 40.2539V35.4492ZM111.707 33.1152L111.854 36.2305H111.521C111.124 35.306 110.711 34.6745 110.281 34.3359C109.858 33.9974 109.435 33.8281 109.012 33.8281C108.745 33.8281 108.517 33.9193 108.328 34.1016C108.139 34.2773 108.045 34.4824 108.045 34.7168C108.045 34.8926 108.11 35.0618 108.24 35.2246C108.449 35.4915 109.031 35.9505 109.988 36.6016C110.945 37.2461 111.574 37.7962 111.873 38.252C112.179 38.7012 112.332 39.2057 112.332 39.7656C112.332 40.2734 112.205 40.7715 111.951 41.2598C111.697 41.748 111.339 42.1224 110.877 42.3828C110.415 42.6432 109.904 42.7734 109.344 42.7734C108.908 42.7734 108.325 42.6367 107.596 42.3633C107.4 42.2917 107.267 42.2559 107.195 42.2559C106.98 42.2559 106.801 42.4186 106.658 42.7441H106.336L106.18 39.4629H106.512C106.805 40.3223 107.205 40.9668 107.713 41.3965C108.227 41.8262 108.712 42.041 109.168 42.041C109.48 42.041 109.734 41.9466 109.93 41.7578C110.132 41.5625 110.232 41.3281 110.232 41.0547C110.232 40.7422 110.135 40.472 109.939 40.2441C109.744 40.0163 109.308 39.6712 108.631 39.209C107.635 38.5189 106.99 37.9915 106.697 37.627C106.268 37.0931 106.053 36.5039 106.053 35.8594C106.053 35.1562 106.294 34.5215 106.775 33.9551C107.264 33.3822 107.967 33.0957 108.885 33.0957C109.38 33.0957 109.858 33.2161 110.32 33.457C110.496 33.5547 110.639 33.6035 110.75 33.6035C110.867 33.6035 110.962 33.5807 111.033 33.5352C111.105 33.4831 111.219 33.3431 111.375 33.1152H111.707ZM127.553 30.0195V35.459H127.934C128.52 35.459 128.998 35.3711 129.369 35.1953C129.74 35.0195 130.053 34.7233 130.307 34.3066C130.567 33.89 130.736 33.3268 130.814 32.6172H131.156V39.2676H130.814C130.691 38.0111 130.352 37.1842 129.799 36.7871C129.252 36.3835 128.63 36.1816 127.934 36.1816H127.553V40.2344C127.553 40.9115 127.589 41.3346 127.66 41.5039C127.738 41.6732 127.885 41.8229 128.1 41.9531C128.321 42.0768 128.617 42.1387 128.988 42.1387H129.428V42.5H122.504V42.1387H122.943C123.327 42.1387 123.637 42.0703 123.871 41.9336C124.04 41.8424 124.171 41.6862 124.262 41.4648C124.333 41.3086 124.369 40.8984 124.369 40.2344V31.5234C124.369 30.8464 124.333 30.4232 124.262 30.2539C124.19 30.0846 124.044 29.9382 123.822 29.8145C123.607 29.6842 123.314 29.6191 122.943 29.6191H122.504V29.2578H133.676V33.0566H133.275C133.184 32.1647 132.95 31.5039 132.572 31.0742C132.201 30.6445 131.661 30.3418 130.951 30.166C130.561 30.0684 129.838 30.0195 128.783 30.0195H127.553ZM141.262 33.0957C142.056 33.0957 142.795 33.3008 143.479 33.7109C144.162 34.1211 144.68 34.7038 145.031 35.459C145.389 36.2142 145.568 37.041 145.568 37.9395C145.568 39.235 145.24 40.319 144.582 41.1914C143.788 42.2461 142.691 42.7734 141.291 42.7734C139.917 42.7734 138.859 42.2917 138.117 41.3281C137.375 40.3646 137.004 39.248 137.004 37.9785C137.004 36.6699 137.382 35.5306 138.137 34.5605C138.898 33.584 139.94 33.0957 141.262 33.0957ZM141.301 33.7891C140.969 33.7891 140.682 33.916 140.441 34.1699C140.207 34.4173 140.051 34.9121 139.973 35.6543C139.901 36.39 139.865 37.4154 139.865 38.7305C139.865 39.4271 139.911 40.0781 140.002 40.6836C140.074 41.1458 140.227 41.4974 140.461 41.7383C140.695 41.9792 140.962 42.0996 141.262 42.0996C141.555 42.0996 141.799 42.0182 141.994 41.8555C142.248 41.6341 142.417 41.3249 142.502 40.9277C142.632 40.3092 142.697 39.0592 142.697 37.1777C142.697 36.071 142.635 35.3125 142.512 34.9023C142.388 34.4857 142.206 34.1829 141.965 33.9941C141.796 33.8574 141.574 33.7891 141.301 33.7891ZM157.773 33.3691V40.5176C157.773 41.2142 157.839 41.6504 157.969 41.8262C158.099 41.9954 158.363 42.1029 158.76 42.1484V42.5H155.039V41.2793C154.603 41.8001 154.167 42.181 153.73 42.4219C153.294 42.6562 152.806 42.7734 152.266 42.7734C151.751 42.7734 151.292 42.6172 150.889 42.3047C150.492 41.9857 150.225 41.6146 150.088 41.1914C149.951 40.7682 149.883 40.0293 149.883 38.9746V35.3516C149.883 34.6615 149.818 34.2318 149.688 34.0625C149.564 33.8932 149.3 33.7826 148.896 33.7305V33.3691H152.617V39.6094C152.617 40.2604 152.646 40.6803 152.705 40.8691C152.77 41.0579 152.868 41.2012 152.998 41.2988C153.135 41.3965 153.291 41.4453 153.467 41.4453C153.701 41.4453 153.913 41.3835 154.102 41.2598C154.362 41.0905 154.674 40.7487 155.039 40.2344V35.3516C155.039 34.6615 154.974 34.2318 154.844 34.0625C154.72 33.8932 154.456 33.7826 154.053 33.7305V33.3691H157.773ZM165.818 33.3691V34.5508C166.287 34.043 166.736 33.6751 167.166 33.4473C167.596 33.2129 168.058 33.0957 168.553 33.0957C169.145 33.0957 169.637 33.2617 170.027 33.5938C170.418 33.9193 170.678 34.3262 170.809 34.8145C170.913 35.1855 170.965 35.8984 170.965 36.9531V40.5078C170.965 41.2109 171.027 41.6504 171.15 41.8262C171.281 41.9954 171.548 42.1029 171.951 42.1484V42.5H167.332V42.1484C167.677 42.1029 167.924 41.9596 168.074 41.7188C168.178 41.556 168.23 41.1523 168.23 40.5078V36.4453C168.23 35.6966 168.201 35.2246 168.143 35.0293C168.084 34.834 167.983 34.6842 167.84 34.5801C167.703 34.4694 167.55 34.4141 167.381 34.4141C166.821 34.4141 166.3 34.8145 165.818 35.6152V40.5078C165.818 41.1914 165.88 41.6243 166.004 41.8066C166.134 41.9889 166.372 42.1029 166.717 42.1484V42.5H162.098V42.1484C162.482 42.1094 162.755 41.9857 162.918 41.7773C163.029 41.6341 163.084 41.2109 163.084 40.5078V35.3516C163.084 34.6615 163.019 34.2318 162.889 34.0625C162.765 33.8932 162.501 33.7826 162.098 33.7305V33.3691H165.818ZM184.098 29.2578V39.7656C184.098 40.4753 184.117 40.8952 184.156 41.0254C184.208 41.2402 184.306 41.3997 184.449 41.5039C184.599 41.6081 184.856 41.6732 185.221 41.6992V42.0215L181.363 42.7734V41.3281C180.901 41.888 180.488 42.2689 180.123 42.4707C179.765 42.6725 179.358 42.7734 178.902 42.7734C177.737 42.7734 176.816 42.2526 176.139 41.2109C175.592 40.3646 175.318 39.3262 175.318 38.0957C175.318 37.1126 175.488 36.2337 175.826 35.459C176.165 34.6777 176.627 34.0885 177.213 33.6914C177.805 33.2943 178.44 33.0957 179.117 33.0957C179.553 33.0957 179.941 33.1803 180.279 33.3496C180.618 33.5189 180.979 33.8151 181.363 34.2383V31.4844C181.363 30.7878 181.334 30.3678 181.275 30.2246C181.197 30.0358 181.08 29.8958 180.924 29.8047C180.768 29.7135 180.475 29.668 180.045 29.668V29.2578H184.098ZM181.363 35.4492C180.882 34.5247 180.292 34.0625 179.596 34.0625C179.355 34.0625 179.156 34.1276 179 34.2578C178.759 34.4596 178.561 34.8145 178.404 35.3223C178.255 35.8301 178.18 36.6081 178.18 37.6562C178.18 38.8086 178.264 39.6615 178.434 40.2148C178.603 40.7682 178.834 41.1686 179.127 41.416C179.277 41.5397 179.482 41.6016 179.742 41.6016C180.315 41.6016 180.855 41.1523 181.363 40.2539V35.4492ZM193.393 41.1523C192.279 42.1354 191.28 42.627 190.395 42.627C189.874 42.627 189.441 42.4577 189.096 42.1191C188.751 41.7741 188.578 41.3444 188.578 40.8301C188.578 40.1335 188.878 39.5085 189.477 38.9551C190.076 38.3952 191.381 37.653 193.393 36.7285V35.8105C193.393 35.1204 193.354 34.6875 193.275 34.5117C193.204 34.3294 193.064 34.1732 192.855 34.043C192.647 33.9062 192.413 33.8379 192.152 33.8379C191.729 33.8379 191.381 33.9323 191.107 34.1211C190.938 34.2383 190.854 34.375 190.854 34.5312C190.854 34.668 190.945 34.8372 191.127 35.0391C191.374 35.319 191.498 35.5892 191.498 35.8496C191.498 36.1686 191.378 36.4421 191.137 36.6699C190.902 36.8913 190.593 37.002 190.209 37.002C189.799 37.002 189.454 36.8783 189.174 36.6309C188.9 36.3835 188.764 36.0938 188.764 35.7617C188.764 35.293 188.949 34.847 189.32 34.4238C189.691 33.9941 190.209 33.6654 190.873 33.4375C191.537 33.2096 192.227 33.0957 192.943 33.0957C193.809 33.0957 194.493 33.2812 194.994 33.6523C195.502 34.0169 195.831 34.4141 195.98 34.8438C196.072 35.1172 196.117 35.7454 196.117 36.7285V40.2734C196.117 40.6901 196.133 40.9538 196.166 41.0645C196.199 41.1686 196.247 41.2467 196.312 41.2988C196.378 41.3509 196.452 41.377 196.537 41.377C196.706 41.377 196.879 41.2565 197.055 41.0156L197.348 41.25C197.022 41.7318 196.684 42.0833 196.332 42.3047C195.987 42.5195 195.593 42.627 195.15 42.627C194.63 42.627 194.223 42.5065 193.93 42.2656C193.637 42.0182 193.458 41.6471 193.393 41.1523ZM193.393 40.4395V37.3828C192.605 37.8451 192.019 38.3398 191.635 38.8672C191.381 39.2188 191.254 39.5736 191.254 39.9316C191.254 40.2311 191.361 40.4948 191.576 40.7227C191.739 40.8984 191.967 40.9863 192.26 40.9863C192.585 40.9863 192.963 40.804 193.393 40.4395ZM203.977 30.0293V33.3691H206.145V34.3359H203.977V39.9707C203.977 40.498 203.999 40.8398 204.045 40.9961C204.097 41.1458 204.185 41.2695 204.309 41.3672C204.432 41.4583 204.546 41.5039 204.65 41.5039C205.074 41.5039 205.474 41.1816 205.852 40.5371L206.145 40.752C205.617 42.002 204.761 42.627 203.576 42.627C202.997 42.627 202.505 42.4674 202.102 42.1484C201.704 41.8229 201.451 41.4616 201.34 41.0645C201.275 40.8431 201.242 40.2441 201.242 39.2676V34.3359H200.051V33.9941C200.871 33.4147 201.568 32.806 202.141 32.168C202.72 31.5299 203.225 30.8171 203.654 30.0293H203.977ZM211.211 28.9453C211.634 28.9453 211.992 29.0951 212.285 29.3945C212.578 29.6875 212.725 30.0423 212.725 30.459C212.725 30.8757 212.575 31.2305 212.275 31.5234C211.982 31.8164 211.628 31.9629 211.211 31.9629C210.794 31.9629 210.439 31.8164 210.146 31.5234C209.854 31.2305 209.707 30.8757 209.707 30.459C209.707 30.0423 209.854 29.6875 210.146 29.3945C210.439 29.0951 210.794 28.9453 211.211 28.9453ZM212.578 33.3691V40.6055C212.578 41.25 212.653 41.6634 212.803 41.8457C212.952 42.0215 213.245 42.1224 213.682 42.1484V42.5H208.75V42.1484C209.154 42.1354 209.453 42.0182 209.648 41.7969C209.779 41.6471 209.844 41.25 209.844 40.6055V35.2734C209.844 34.6289 209.769 34.2188 209.619 34.043C209.469 33.8607 209.18 33.7565 208.75 33.7305V33.3691H212.578ZM220.887 33.0957C221.681 33.0957 222.42 33.3008 223.104 33.7109C223.787 34.1211 224.305 34.7038 224.656 35.459C225.014 36.2142 225.193 37.041 225.193 37.9395C225.193 39.235 224.865 40.319 224.207 41.1914C223.413 42.2461 222.316 42.7734 220.916 42.7734C219.542 42.7734 218.484 42.2917 217.742 41.3281C217 40.3646 216.629 39.248 216.629 37.9785C216.629 36.6699 217.007 35.5306 217.762 34.5605C218.523 33.584 219.565 33.0957 220.887 33.0957ZM220.926 33.7891C220.594 33.7891 220.307 33.916 220.066 34.1699C219.832 34.4173 219.676 34.9121 219.598 35.6543C219.526 36.39 219.49 37.4154 219.49 38.7305C219.49 39.4271 219.536 40.0781 219.627 40.6836C219.699 41.1458 219.852 41.4974 220.086 41.7383C220.32 41.9792 220.587 42.0996 220.887 42.0996C221.18 42.0996 221.424 42.0182 221.619 41.8555C221.873 41.6341 222.042 41.3249 222.127 40.9277C222.257 40.3092 222.322 39.0592 222.322 37.1777C222.322 36.071 222.26 35.3125 222.137 34.9023C222.013 34.4857 221.831 34.1829 221.59 33.9941C221.421 33.8574 221.199 33.7891 220.926 33.7891ZM232.311 33.3691V34.5508C232.779 34.043 233.229 33.6751 233.658 33.4473C234.088 33.2129 234.55 33.0957 235.045 33.0957C235.637 33.0957 236.129 33.2617 236.52 33.5938C236.91 33.9193 237.171 34.3262 237.301 34.8145C237.405 35.1855 237.457 35.8984 237.457 36.9531V40.5078C237.457 41.2109 237.519 41.6504 237.643 41.8262C237.773 41.9954 238.04 42.1029 238.443 42.1484V42.5H233.824V42.1484C234.169 42.1029 234.417 41.9596 234.566 41.7188C234.671 41.556 234.723 41.1523 234.723 40.5078V36.4453C234.723 35.6966 234.693 35.2246 234.635 35.0293C234.576 34.834 234.475 34.6842 234.332 34.5801C234.195 34.4694 234.042 34.4141 233.873 34.4141C233.313 34.4141 232.792 34.8145 232.311 35.6152V40.5078C232.311 41.1914 232.372 41.6243 232.496 41.8066C232.626 41.9889 232.864 42.1029 233.209 42.1484V42.5H228.59V42.1484C228.974 42.1094 229.247 41.9857 229.41 41.7773C229.521 41.6341 229.576 41.2109 229.576 40.5078V35.3516C229.576 34.6615 229.511 34.2318 229.381 34.0625C229.257 33.8932 228.993 33.7826 228.59 33.7305V33.3691H232.311Z" fill="#033AB9"/>
<path d="M5.82759 1H1V32.6057C1 33.2241 1.13793 35.2166 1.48276 36.7969C2.36552 39.7651 4.97701 41.6981 6.17241 42.2935C12.3103 45.1793 18.4483 43.6677 19.3448 43.0493H26.6552L26.7241 25.3913L31.069 43.0493H42.3793L35.6207 19.9634L39.069 9.38238H45.8966V17.3525H39.2069V25.4601H45.9655V43.0493H57V1H31.4828L26.7931 16.9403V1H26.6552H23.2069C21.5517 2.92382 21.5374 3.5422 21.2759 4.02315C20.3793 5.67215 20.8621 9.38238 21 10.2756C20.9448 10.9901 22.1724 10.5733 22.7931 10.2756C22.954 10.184 23.2897 10.042 23.3448 10.2069C23.4828 10.3443 23.3448 10.9627 23.069 11.4436C22.6276 12.9277 21.6897 14.3523 21.2759 14.879C20.5586 15.5386 20.1494 17.0777 20.0345 17.7648C19.7586 18.8641 20.0345 20.3757 20.3103 20.6505C20.5172 21.1315 20.5172 22.5056 20.4483 23.124C20.3931 23.6187 20.1494 23.9714 20.0345 24.0859C19.7816 24.3149 19.2069 24.8829 18.931 25.3226C18.269 26.2021 18.6552 27.5213 18.931 28.071C19.3448 28.3458 18.5862 29.239 18.3793 29.3764C18.1034 29.5138 17.9655 30.8193 17.9655 30.9567C17.9655 31.0941 17.9655 31.2315 17.8276 31.3689C17.3448 31.9186 16.6552 33.0867 16.6552 33.2241C16.6552 33.334 16.6092 33.3615 16.5862 33.3615C15.9241 33.0867 15.3974 35.354 14.7931 36.4533C13.2069 39.3391 12.7931 36.9343 12.3103 36.4533C12.0345 35.9266 11.4828 34.4608 11.3448 34.1173C11.2069 33.3615 10.931 32.537 10.6552 32.056C10.4345 31.6713 10.4713 30.6132 10.5172 30.1322C10.7241 29.9261 11.3448 26.6968 10.5172 25.4601C9.91035 24.1409 10.3563 22.895 10.6552 22.4369C10.931 22.0934 10.7931 19.6886 10.5172 19.1389C10.3793 17.6273 10.3103 18.1083 10.2414 17.4899C10.1862 16.5555 10.0345 16.1845 9.96552 16.1158C9.68966 15.9509 9.82759 14.3294 9.82759 14.1919C9.82759 14.0232 9.75862 13.3674 9.27586 13.23C9.13793 13.2987 8.17241 12.4742 8.17241 12.4055C8.17241 12.3506 8.03448 12.291 7.96552 12.2681H6.51724C6.4069 12.2681 5.82759 12.9094 5.55172 13.23C5.34483 13.4362 4.64138 13.5049 4.58621 13.23C4.42069 13.285 4.14943 13.1613 4.03448 13.0926C3.06897 11.9933 2.51724 11.2005 2.24138 10.7565C1.52414 9.60225 1.43678 9.08464 1.48276 8.97013V6.84018C1.48276 6.40045 2.10345 4.64153 2.31034 4.50411C3.02759 2.91008 4.58621 1.61837 5.82759 1Z" fill="#033AB9" stroke="#033AB9"/>
</svg>
